<mxfile host="app.diagrams.net" modified="2023-11-10T04:21:14.027Z" agent="Mozilla/5.0 (Windows NT 10.0; Win64; x64) AppleWebKit/537.36 (KHTML, like Gecko) Chrome/119.0.0.0 Safari/537.36 Edg/119.0.0.0" etag="wwuzevm7DVrfVralNwx9" version="22.1.0" type="github">
  <diagram name="Page-1" id="gSCJDVLffjfoy0yC-mrh">
    <mxGraphModel dx="719" dy="374" grid="1" gridSize="10" guides="1" tooltips="1" connect="1" arrows="1" fold="1" page="1" pageScale="1" pageWidth="850" pageHeight="1100" math="0" shadow="0">
      <root>
        <mxCell id="0" />
        <mxCell id="1" parent="0" />
        <mxCell id="oF1ttkINDnGKlyON3AFg-1" value="User" style="shape=umlActor;verticalLabelPosition=bottom;verticalAlign=top;html=1;outlineConnect=0;" vertex="1" parent="1">
          <mxGeometry x="40" y="500" width="30" height="60" as="geometry" />
        </mxCell>
        <mxCell id="oF1ttkINDnGKlyON3AFg-2" value="System" style="shape=umlActor;verticalLabelPosition=bottom;verticalAlign=top;html=1;outlineConnect=0;" vertex="1" parent="1">
          <mxGeometry x="715" y="460" width="30" height="60" as="geometry" />
        </mxCell>
        <mxCell id="oF1ttkINDnGKlyON3AFg-7" value="Manage List" style="ellipse;whiteSpace=wrap;html=1;" vertex="1" parent="1">
          <mxGeometry x="400" y="280" width="120" height="80" as="geometry" />
        </mxCell>
        <mxCell id="oF1ttkINDnGKlyON3AFg-8" value="Manage Reviews" style="ellipse;whiteSpace=wrap;html=1;" vertex="1" parent="1">
          <mxGeometry x="730" y="600" width="120" height="80" as="geometry" />
        </mxCell>
        <mxCell id="oF1ttkINDnGKlyON3AFg-9" value="Manage User Profile" style="ellipse;whiteSpace=wrap;html=1;" vertex="1" parent="1">
          <mxGeometry x="245" y="620" width="120" height="80" as="geometry" />
        </mxCell>
        <mxCell id="oF1ttkINDnGKlyON3AFg-11" value="Add Movie to List" style="ellipse;whiteSpace=wrap;html=1;" vertex="1" parent="1">
          <mxGeometry x="670" y="310" width="120" height="80" as="geometry" />
        </mxCell>
        <mxCell id="oF1ttkINDnGKlyON3AFg-12" value="Delete Movie in List" style="ellipse;whiteSpace=wrap;html=1;" vertex="1" parent="1">
          <mxGeometry x="540" y="260" width="120" height="80" as="geometry" />
        </mxCell>
        <mxCell id="oF1ttkINDnGKlyON3AFg-13" value="Add Reviews" style="ellipse;whiteSpace=wrap;html=1;" vertex="1" parent="1">
          <mxGeometry x="570" y="400" width="120" height="80" as="geometry" />
        </mxCell>
        <mxCell id="oF1ttkINDnGKlyON3AFg-14" value="Edit Reviews" style="ellipse;whiteSpace=wrap;html=1;" vertex="1" parent="1">
          <mxGeometry x="530" y="490" width="120" height="80" as="geometry" />
        </mxCell>
        <mxCell id="oF1ttkINDnGKlyON3AFg-15" value="Delete Reviews" style="ellipse;whiteSpace=wrap;html=1;" vertex="1" parent="1">
          <mxGeometry x="580" y="550" width="120" height="80" as="geometry" />
        </mxCell>
        <mxCell id="oF1ttkINDnGKlyON3AFg-17" value="Edit User Profile" style="ellipse;whiteSpace=wrap;html=1;" vertex="1" parent="1">
          <mxGeometry x="600" y="670" width="120" height="80" as="geometry" />
        </mxCell>
        <mxCell id="oF1ttkINDnGKlyON3AFg-18" value="Delete User" style="ellipse;whiteSpace=wrap;html=1;" vertex="1" parent="1">
          <mxGeometry x="260" y="750" width="120" height="80" as="geometry" />
        </mxCell>
        <mxCell id="oF1ttkINDnGKlyON3AFg-22" value="" style="edgeStyle=orthogonalEdgeStyle;rounded=0;orthogonalLoop=1;jettySize=auto;html=1;" edge="1" parent="1" source="oF1ttkINDnGKlyON3AFg-19" target="oF1ttkINDnGKlyON3AFg-21">
          <mxGeometry relative="1" as="geometry" />
        </mxCell>
        <mxCell id="oF1ttkINDnGKlyON3AFg-19" value="Login" style="ellipse;whiteSpace=wrap;html=1;" vertex="1" parent="1">
          <mxGeometry x="125" y="470" width="85" height="40" as="geometry" />
        </mxCell>
        <mxCell id="oF1ttkINDnGKlyON3AFg-20" value="" style="endArrow=none;html=1;rounded=0;entryX=0;entryY=0.5;entryDx=0;entryDy=0;" edge="1" parent="1" source="oF1ttkINDnGKlyON3AFg-1" target="oF1ttkINDnGKlyON3AFg-19">
          <mxGeometry width="50" height="50" relative="1" as="geometry">
            <mxPoint x="330" y="550" as="sourcePoint" />
            <mxPoint x="380" y="500" as="targetPoint" />
          </mxGeometry>
        </mxCell>
        <mxCell id="oF1ttkINDnGKlyON3AFg-21" value="Show Top Movies, Recent Reviews" style="ellipse;whiteSpace=wrap;html=1;" vertex="1" parent="1">
          <mxGeometry x="300" y="430" width="120" height="80" as="geometry" />
        </mxCell>
        <mxCell id="oF1ttkINDnGKlyON3AFg-23" value="" style="endArrow=none;html=1;rounded=0;entryX=0;entryY=0.5;entryDx=0;entryDy=0;exitX=0.5;exitY=0;exitDx=0;exitDy=0;" edge="1" parent="1" source="oF1ttkINDnGKlyON3AFg-21" target="oF1ttkINDnGKlyON3AFg-7">
          <mxGeometry width="50" height="50" relative="1" as="geometry">
            <mxPoint x="510" y="460" as="sourcePoint" />
            <mxPoint x="560" y="410" as="targetPoint" />
          </mxGeometry>
        </mxCell>
      </root>
    </mxGraphModel>
  </diagram>
</mxfile>
